<?xml version="1.0" encoding="UTF-8"?>
<svg id="Layer_3" data-name="Layer 3" xmlns="http://www.w3.org/2000/svg" viewBox="0 0 342.14 234.64">
  <defs>
    <style>
      .cls-1 {
        fill: #d2232a;
      }
    </style>
  </defs>
  <path class="cls-1" d="M47.85,62.42c-10.14-1.17-20.84-1.48-30.05,3.65-9.5,5.28-14.54,15.61-16.29,25.96C.59,97.41,0,102.93,0,108.39c0,5.78,.66,11.85,2.62,17.31,3.93,10.94,11.94,20.16,23.48,23.21,3.49,.92,7.17,1.37,10.76,1.64s7.12,0,10.54-.81c3.85-.91,7.19-2.82,10.23-5.28s4.88-5.71,6.29-9.29c.89-2.26,.17-5.69-1.01-7.71s-3.59-4.05-5.98-4.6c-2.56-.58-5.43-.46-7.71,1.01l-2.02,1.56c-1.24,1.25-2.1,2.72-2.57,4.41l-.13,.34,1.01-2.39c-.35,.79-.76,1.51-1.27,2.21l1.56-2.02c-.68,.88-1.45,1.64-2.32,2.33l2.02-1.56c-1,.75-2.06,1.36-3.2,1.86l2.39-1.01c-1.42,.58-2.88,.95-4.39,1.18l2.66-.36c-3.02,.39-6.04,.19-9.05-.19l2.66,.36c-2.87-.39-5.71-.95-8.4-2.07l2.39,1.01c-1.61-.71-3.09-1.59-4.49-2.65l2.02,1.56c-1.68-1.32-3.16-2.83-4.46-4.52l1.56,2.02c-1.53-2.03-2.77-4.22-3.76-6.56l1.01,2.39c-1.2-2.94-1.94-6.01-2.38-9.15l.36,2.66c-.78-6.08-.43-12.28,.37-18.35l-.36,2.66c.55-4.01,1.41-7.99,2.99-11.74l-1.01,2.39c.84-1.92,1.85-3.73,3.12-5.4l-1.56,2.02c.99-1.26,2.1-2.4,3.36-3.4l-2.02,1.56c1.43-1.1,2.97-1.99,4.63-2.7l-2.39,1.01c2.14-.87,4.38-1.42,6.67-1.73l-2.66,.36c5.42-.69,10.89-.18,16.29,.44,2.37,.27,5.46-1.31,7.07-2.93,1.73-1.73,3.04-4.58,2.93-7.07s-.97-5.27-2.93-7.07l-2.02-1.56c-1.56-.9-3.24-1.36-5.05-1.37h0Z"/>
  <path class="cls-1" d="M67.16,19.1c1.97,11.12,3.71,22.28,5.22,33.47l-.36-2.66c3.03,22.63,5.11,45.39,6.21,68.2,.31,6.46,.54,12.92,.7,19.38,.06,2.6,1.07,5.21,2.93,7.07,1.73,1.73,4.58,3.04,7.07,2.93,5.31-.24,10.14-4.4,10-10-.79-32.49-3.62-64.88-8.22-97.05-1.27-8.91-2.7-17.8-4.27-26.67-.41-2.34-2.62-4.82-4.6-5.98-2.14-1.25-5.3-1.79-7.71-1.01s-4.75,2.28-5.98,4.6c-1.32,2.5-1.5,4.92-1.01,7.71h0Z"/>
  <path class="cls-1" d="M115.79,70.5v70.44c0,5.23,4.6,10.24,10,10s10-4.39,10-10V70.5c0-5.23-4.6-10.24-10-10s-10,4.39-10,10h0Z"/>
  <path class="cls-1" d="M124.31,43.55c5.23,0,10.24-4.6,10-10s-4.39-10-10-10c-5.23,0-10.24,4.6-10,10s4.39,10,10,10h0Z"/>
  <path class="cls-1" d="M201.28,62.57c-5.04-1.31-10.13-2.56-15.27-3.39-3.24-.52-6.56-1.05-9.85-.69-3.76,.41-7.13,1.21-10.45,3.12-9.04,5.2-13.36,15.61-15.51,25.33-2.34,10.62-2.97,21.77-.28,32.39,.75,2.96,1.89,5.76,3.11,8.56,.92,2.1,2.01,4.14,3.35,6,2.32,3.22,4.64,5.68,7.85,8.01,2.28,1.66,5,2.84,7.69,3.64,6.63,1.99,13.77,1.31,20.08-1.35,3.32-1.4,6.05-3.2,8.85-5.48,2.5-2.04,4.47-4.52,6.37-7.11,1.44-1.96,1.63-5.46,1.01-7.71s-2.43-4.83-4.6-5.98c-2.32-1.23-5.13-1.84-7.71-1.01l-2.39,1.01c-1.5,.89-2.7,2.08-3.59,3.59-.15,.21-.31,.42-.47,.62l1.56-2.02c-1.36,1.75-2.91,3.32-4.65,4.71l2.02-1.56c-1.65,1.27-3.41,2.34-5.32,3.17l2.39-1.01c-1.7,.71-3.45,1.2-5.28,1.47l2.66-.36c-1.73,.22-3.45,.23-5.18,.03l2.66,.36c-1.72-.23-3.37-.67-4.97-1.33l2.39,1.01c-1.35-.59-2.59-1.32-3.76-2.21l2.02,1.56c-1.29-1.04-2.42-2.21-3.44-3.51l1.56,2.02c-1.69-2.22-3.01-4.68-4.09-7.25l1.01,2.39c-1.39-3.39-2.3-6.93-2.82-10.56l.36,2.66c-.7-5.24-.57-10.53,.11-15.77l-.36,2.66c.71-5.21,1.83-10.47,3.85-15.34l-1.01,2.39c.93-2.19,2.06-4.28,3.51-6.18l-1.56,2.02c.93-1.17,1.95-2.23,3.13-3.14l-2.02,1.56c.92-.69,1.89-1.26,2.94-1.73l-2.39,1.01c1.16-.48,2.34-.8,3.58-1l-2.66,.36c2.1-.28,4.18-.19,6.28,.07l-2.66-.36c5.6,.77,11.16,2.17,16.62,3.59,2.53,.66,5.43,.32,7.71-1.01,2.07-1.21,4.05-3.59,4.6-5.98,1.19-5.22-1.57-10.89-6.98-12.3h0Z"/>
  <path class="cls-1" d="M219.02,12.66c3.04,17.7,5.76,35.46,8.16,53.26l-.36-2.66c2.81,20.9,5.17,41.87,7.08,62.87,.54,5.91,1.04,11.82,1.5,17.73,.21,2.69,.97,5.11,2.93,7.07,1.73,1.73,4.58,3.04,7.07,2.93s5.27-.97,7.07-2.93,3.14-4.45,2.93-7.07c-1.38-17.58-3.08-35.13-5.09-52.64-2.09-18.16-4.5-36.28-7.23-54.35-1.49-9.86-3.08-19.7-4.77-29.52-.4-2.33-2.63-4.83-4.6-5.98-2.14-1.25-5.3-1.79-7.71-1.01s-4.75,2.28-5.98,4.6c-1.33,2.51-1.49,4.92-1.01,7.71h0Z"/>
  <path class="cls-1" d="M272.89,43.22c-12.44,15.11-24.76,30.32-36.97,45.62-1.08,1.36-2.1,2.7-2.57,4.41-.6,2.18-.36,4.46,.5,6.51,.69,1.64,1.67,2.91,3.08,4,1.6,1.23,3.97,2.39,6.06,2.15,.64-.07,1.24-.07,1.87,.01l-2.66-.36c.62,.12,1.2,.29,1.78,.53l-2.39-1.01c.95,.43,1.81,.98,2.64,1.61l-2.02-1.56c3.39,2.69,6.29,6.12,9.27,9.24,3.16,3.3,6.28,6.62,9.39,9.97,6.26,6.75,12.4,13.61,18.43,20.57,3.46,3.99,6.88,8.02,10.26,12.08,1.55,1.86,4.74,2.93,7.07,2.93,2.45,0,5.38-1.09,7.07-2.93s3.05-4.41,2.93-7.07-1.15-4.93-2.93-7.07c-13.54-16.23-27.68-31.95-42.41-47.11-4.8-4.94-10.76-10.69-18.3-9.82,2.36,5.69,4.71,11.38,7.07,17.07,12.21-15.3,24.53-30.5,36.97-45.62,1.73-2.11,2.93-4.25,2.93-7.07,0-2.45-1.09-5.38-2.93-7.07s-4.41-3.05-7.07-2.93c-2.5,.11-5.41,.91-7.07,2.93h0Z"/>
</svg>